<svg width="584" height="557" viewBox="0 0 584 557" fill="none" xmlns="http://www.w3.org/2000/svg">
<g filter="url(#filter0_b_11_23200)">
<rect width="584" height="557" rx="278.5" fill="#D9D9D9" fill-opacity="0.1"/>
</g>
<path d="M214.35 77.0593C179.556 90.5669 148.878 112.9 125.333 141.861C101.789 170.822 86.1891 205.413 80.069 242.232C73.9489 279.05 77.5191 316.828 90.4285 351.849C103.338 386.869 125.142 417.926 153.695 441.963C182.248 466 216.567 482.19 253.276 488.941C289.984 495.691 327.817 492.768 363.054 480.461C398.29 468.154 429.716 446.885 454.239 418.748C478.762 390.611 495.538 356.575 502.916 319.987L292.159 277.486L214.35 77.0593Z" fill="#D9D9D9"/>
<path d="M475.521 390.461C504.884 342.917 514.583 285.808 502.562 231.235C490.54 176.662 457.744 128.914 411.121 98.1081C364.499 67.3018 307.714 55.8582 252.798 66.2019C197.883 76.5456 149.152 107.864 116.932 153.521C84.7121 199.178 71.5342 255.585 80.1906 310.792C88.8471 365.998 118.658 415.665 163.306 449.269C207.954 482.873 263.932 497.773 319.378 490.812C374.823 483.851 425.381 455.576 460.336 411.978L292.595 277.487L475.521 390.461Z" fill="#EA8010"/>
<path d="M475.636 389.564C502.936 344.872 512.985 291.753 503.897 240.177C494.809 188.601 467.209 142.115 426.277 109.447C385.346 76.7776 333.897 60.1718 281.59 62.7461C229.283 65.3205 179.714 86.8981 142.188 123.428C104.663 159.959 81.7603 208.93 77.7807 261.149C73.8012 313.368 89.018 365.244 120.575 407.039C152.132 448.834 197.858 477.674 249.171 488.145C300.484 498.616 353.854 489.998 399.264 463.909L292.159 277.486L475.636 389.564Z" fill="#3983FF"/>
<defs>
<filter id="filter0_b_11_23200" x="-34.4" y="-34.4" width="652.8" height="625.8" filterUnits="userSpaceOnUse" color-interpolation-filters="sRGB">
<feFlood flood-opacity="0" result="BackgroundImageFix"/>
<feGaussianBlur in="BackgroundImageFix" stdDeviation="17.2"/>
<feComposite in2="SourceAlpha" operator="in" result="effect1_backgroundBlur_11_23200"/>
<feBlend mode="normal" in="SourceGraphic" in2="effect1_backgroundBlur_11_23200" result="shape"/>
</filter>
</defs>
</svg>
