<svg width="476" height="449" viewBox="0 0 476 449" fill="none" xmlns="http://www.w3.org/2000/svg">
<path d="M154.642 18.6527C120.785 31.7966 90.9333 53.5279 68.0228 81.7089C45.1123 109.89 29.9328 143.55 23.9775 179.377C18.0222 215.204 21.4963 251.965 34.058 286.042C46.6197 320.119 67.8363 350.339 95.6206 373.729C123.405 397.119 156.8 412.874 192.52 419.442C228.239 426.01 265.054 423.167 299.342 411.191C333.629 399.215 364.208 378.519 388.071 351.14C411.934 323.76 428.258 290.641 435.437 255.039L230.356 213.682L154.642 18.6527Z" fill="#D9D9D9"/>
<path d="M408.78 323.615C437.352 277.351 446.79 221.78 435.092 168.677C423.395 115.574 391.481 69.1112 346.114 39.1346C300.747 9.15799 245.492 -1.97749 192.055 8.08766C138.619 18.1528 91.2005 48.6278 59.8481 93.0551C28.4956 137.482 15.6725 192.371 24.0958 246.091C32.5192 299.811 61.5271 348.14 104.973 380.839C148.419 413.538 202.889 428.037 256.842 421.263C310.794 414.489 359.99 386.976 394.004 344.552L230.78 213.682L408.78 323.615Z" fill="#EA8010"/>
<path d="M408.891 322.741C435.456 279.253 445.235 227.564 436.392 177.377C427.549 127.19 400.692 81.9565 360.862 50.1674C321.033 18.3783 270.97 2.21958 220.072 4.72462C169.173 7.22966 120.939 28.2262 84.4241 63.7727C47.9088 99.3193 25.6232 146.971 21.7509 197.784C17.8785 248.597 32.6855 299.076 63.3925 339.745C94.0994 380.415 138.595 408.478 188.526 418.667C238.457 428.856 290.39 420.471 334.577 395.084L230.356 213.682L408.891 322.741Z" fill="#3983FF"/>
</svg>
