<svg width="50" height="40" viewBox="0 0 50 40" fill="none" xmlns="http://www.w3.org/2000/svg">
<g clip-path="url(#clip0_11_23630)">
<path d="M31.8398 0.159919C33.1398 0.659919 33.8073 2.17242 33.3348 3.54242L21.3648 38.2624C20.8898 39.6324 19.4573 40.3374 18.1598 39.8399C16.8598 39.3399 16.1923 37.8274 16.6648 36.4574L28.6348 1.73742C29.1098 0.367419 30.5423 -0.337581 31.8398 0.159919ZM6.03483 20.6399L14.8748 29.9749C15.8498 31.0049 15.8498 32.6749 14.8748 33.7049C14.6494 33.9486 14.376 34.1431 14.0719 34.2761C13.7677 34.4091 13.4393 34.4778 13.1073 34.4778C12.7754 34.4778 12.447 34.4091 12.1428 34.2761C11.8386 34.1431 11.5652 33.9486 11.3398 33.7049L0.732332 22.5074C0.262863 21.9993 0.00213623 21.333 0.00213623 20.6412C0.00213623 19.9494 0.262863 19.283 0.732332 18.7749L11.3398 7.57492C11.5652 7.33119 11.8386 7.13671 12.1428 7.00371C12.447 6.8707 12.7754 6.80204 13.1073 6.80204C13.4393 6.80204 13.7677 6.8707 14.0719 7.00371C14.376 7.13671 14.6494 7.33119 14.8748 7.57492C15.345 8.08316 15.6062 8.75005 15.6062 9.44242C15.6062 10.1348 15.345 10.8017 14.8748 11.3099L6.03483 20.6399ZM43.9648 20.6399L35.1248 11.3099C34.6554 10.8018 34.3946 10.1355 34.3946 9.44367C34.3946 8.75189 34.6554 8.08552 35.1248 7.57742C35.3502 7.33369 35.6236 7.13921 35.9278 7.00621C36.232 6.8732 36.5603 6.80454 36.8923 6.80454C37.2243 6.80454 37.5527 6.8732 37.8569 7.00621C38.161 7.13921 38.4344 7.33369 38.6598 7.57742L49.2673 18.7749C50.2423 19.8049 50.2423 21.4749 49.2673 22.5074L38.6598 33.7024C38.4344 33.9461 38.161 34.1406 37.8569 34.2736C37.5527 34.4066 37.2243 34.4753 36.8923 34.4753C36.5603 34.4753 36.232 34.4066 35.9278 34.2736C35.6236 34.1406 35.3502 33.9461 35.1248 33.7024C34.6561 33.1945 34.3958 32.5286 34.3958 31.8374C34.3958 31.1462 34.6561 30.4804 35.1248 29.9724L43.9648 20.6399Z" fill="white"/>
</g>
<defs>
<clipPath id="clip0_11_23630">
<rect width="50" height="40" fill="white"/>
</clipPath>
</defs>
</svg>
