<svg width="584" height="647" viewBox="0 0 584 647" fill="none" xmlns="http://www.w3.org/2000/svg">
<path d="M10.35 45.1094V18.9814H0.782V12.2194H28.152V18.9814H18.63V45.1094H10.35ZM36.7443 45.8454C28.8783 45.8454 24.1403 40.6474 24.1403 33.3334C24.1403 26.0194 28.8783 20.8214 36.7443 20.8214C44.5643 20.8214 49.3023 26.0194 49.3023 33.3334C49.3023 40.6474 44.5643 45.8454 36.7443 45.8454ZM36.7443 40.3254C39.9643 40.3254 41.9423 37.8874 41.9423 33.3334C41.9423 28.7794 39.9643 26.3414 36.7443 26.3414C33.4783 26.3414 31.5003 28.7794 31.5003 33.3334C31.5003 37.8874 33.4783 40.3254 36.7443 40.3254ZM51.837 12.2194H59.197V29.5154L66.097 21.5574H74.883L66.557 30.3894L75.849 45.1094H67.109L61.543 35.7254L59.197 38.1634V45.1094H51.837V12.2194ZM87.0974 40.3254C89.6274 40.3254 90.8234 39.1294 91.2834 37.9794H98.5974C97.3094 42.7174 93.6294 45.8454 87.2354 45.8454C79.4154 45.8454 74.6774 40.6934 74.6774 33.3334C74.6774 26.1574 79.3234 20.8214 86.8214 20.8214C94.8714 20.8214 98.9654 26.7094 98.9654 35.2654H82.0374C82.0374 38.5774 84.4754 40.3254 87.0974 40.3254ZM86.8214 25.8814C84.0154 25.8814 82.0374 27.5374 82.0374 30.8034H91.6054C91.6054 27.5374 89.6274 25.8814 86.8214 25.8814ZM116.656 20.8214C121.21 20.8214 124.292 23.8114 124.292 29.1934V45.1094H116.932V31.5394C116.932 27.9974 115.69 26.8014 113.252 26.8014C110.446 26.8014 108.836 28.2274 108.836 31.4934V45.1094H101.476V21.5574H108.836V24.9614H108.928C110.17 22.7994 112.47 20.8214 116.656 20.8214ZM139.256 45.8454C131.39 45.8454 126.652 40.6474 126.652 33.3334C126.652 26.0194 131.39 20.8214 139.256 20.8214C147.076 20.8214 151.814 26.0194 151.814 33.3334C151.814 40.6474 147.076 45.8454 139.256 45.8454ZM139.256 40.3254C142.476 40.3254 144.454 37.8874 144.454 33.3334C144.454 28.7794 142.476 26.3414 139.256 26.3414C135.99 26.3414 134.012 28.7794 134.012 33.3334C134.012 37.8874 135.99 40.3254 139.256 40.3254ZM183.329 20.8214C188.067 20.8214 190.873 23.8114 190.873 29.1934V45.1094H183.421V31.5394C183.421 27.9974 182.685 26.8014 180.063 26.8014C177.717 26.8014 176.245 28.2274 176.245 31.4934V45.1094H168.885V31.5394C168.885 27.9974 168.149 26.8014 165.527 26.8014C163.227 26.8014 161.709 28.2274 161.709 31.4934V45.1094H154.349V21.5574H161.709V24.9614H161.801C163.043 22.7994 165.619 20.8214 169.161 20.8214C172.243 20.8214 174.405 22.5234 175.325 24.9614H175.417C177.441 22.6154 179.511 20.8214 183.329 20.8214ZM197.964 18.7514C195.894 18.7514 194.284 17.6474 194.284 15.4854C194.284 13.3694 195.894 12.2194 197.964 12.2194C200.034 12.2194 201.644 13.3694 201.644 15.4854C201.644 17.6474 200.034 18.7514 197.964 18.7514ZM194.284 21.5574H201.644V45.1094H194.284V21.5574ZM220.425 20.8214C224.979 20.8214 228.061 23.8114 228.061 29.1934V45.1094H220.701V31.5394C220.701 27.9974 219.459 26.8014 217.021 26.8014C214.215 26.8014 212.605 28.2274 212.605 31.4934V45.1094H205.245V21.5574H212.605V24.9614H212.697C213.939 22.7994 216.239 20.8214 220.425 20.8214ZM246.706 30.3434C246.476 28.4574 245.464 26.3414 242.52 26.3414C239.484 26.3414 237.782 28.9174 237.782 33.3334C237.782 37.7494 239.438 40.3254 242.52 40.3254C245.464 40.3254 246.476 38.3474 246.706 36.2314H253.928C253.56 41.7974 249.328 45.8454 242.566 45.8454C235.114 45.8454 230.422 40.6934 230.422 33.3334C230.422 26.0194 235.114 20.8214 242.382 20.8214C249.236 20.8214 253.33 24.8694 253.928 30.3434H246.706ZM268.046 30.2514C272.692 31.2634 277.292 32.8274 277.292 38.1634C277.292 43.1314 273.52 45.8454 266.988 45.8454C258.57 45.8454 255.35 42.0734 255.12 37.2894H262.02C262.25 39.6354 263.814 40.7854 266.712 40.7854C268.782 40.7854 269.932 40.0954 269.932 38.7614C269.932 36.7374 267.724 36.4614 263.998 35.6334C259.996 34.7594 255.58 33.2874 255.58 28.3654C255.58 24.0874 259.26 20.8214 265.884 20.8214C273.428 20.8214 276.372 24.6394 276.602 28.7794H269.702C269.472 26.8934 268.46 25.8814 266.068 25.8814C263.998 25.8814 262.94 26.6174 262.94 27.7674C262.94 29.4234 264.412 29.4694 268.046 30.2514Z" fill="white"/>
<g filter="url(#filter0_b_11_23198)">
<rect y="89.1094" width="584" height="557" rx="278.5" fill="#D9D9D9" fill-opacity="0.1"/>
</g>
<path d="M502.163 414.623C510.5 378.242 509.223 340.317 498.457 304.58C487.691 268.842 467.807 236.523 440.762 210.801C413.716 185.08 380.44 166.842 344.207 157.882C307.974 148.922 270.034 149.549 234.117 159.701C198.2 169.853 165.545 189.18 139.363 215.781C113.182 242.382 94.3766 275.341 84.7972 311.415C75.2179 347.489 75.1945 385.435 84.7294 421.52C94.2644 457.606 113.029 490.587 139.178 517.221L292.595 366.595L502.163 414.623Z" fill="#3983FF"/>
<path d="M214.35 166.169C179.556 179.676 148.878 202.009 125.333 230.97C101.789 259.931 86.1891 294.522 80.069 331.341C73.9489 368.16 77.5191 405.938 90.4285 440.958C103.338 475.978 125.142 507.035 153.695 531.072C182.248 555.11 216.567 571.3 253.276 578.05C289.984 584.8 327.817 581.878 363.054 569.57C398.29 557.263 429.716 535.995 454.239 507.858C478.762 479.72 495.538 445.684 502.916 409.097L292.159 366.595L214.35 166.169Z" fill="#D9D9D9"/>
<path d="M448.78 219.304C423.21 192.114 391.002 172.05 355.326 161.084C319.649 150.118 281.732 148.629 245.305 156.763C208.878 164.897 175.196 182.373 147.573 207.473C119.949 232.574 99.3357 264.433 87.7602 299.916C76.1847 335.4 74.0459 373.286 81.5543 409.847C89.0627 446.408 105.96 480.384 130.583 508.434C155.206 536.483 186.707 557.64 221.987 569.822C257.267 582.003 295.111 584.791 331.795 577.91L292.159 366.595L448.78 219.304Z" fill="#EA8010"/>
<defs>
<filter id="filter0_b_11_23198" x="-34.4" y="54.7094" width="652.8" height="625.8" filterUnits="userSpaceOnUse" color-interpolation-filters="sRGB">
<feFlood flood-opacity="0" result="BackgroundImageFix"/>
<feGaussianBlur in="BackgroundImageFix" stdDeviation="17.2"/>
<feComposite in2="SourceAlpha" operator="in" result="effect1_backgroundBlur_11_23198"/>
<feBlend mode="normal" in="SourceGraphic" in2="effect1_backgroundBlur_11_23198" result="shape"/>
</filter>
</defs>
</svg>
