<svg width="552" height="552" viewBox="0 0 552 552" fill="none" xmlns="http://www.w3.org/2000/svg">
<rect width="552" height="552" fill="#EA8010"/>
<path d="M352.02 393.264L161.58 194.777C158.909 191.994 157.418 188.285 157.418 184.427V168.949C157.418 160.693 164.111 154 172.367 154H369.046C377.303 154 383.996 160.693 383.996 168.949V240.894C383.996 249.15 377.303 255.843 369.046 255.843H301.974C297.155 255.843 295.174 262.027 299.096 264.828L387.545 327.988C391.474 330.794 393.806 335.325 393.806 340.154V382.914C393.806 391.17 387.113 397.864 378.857 397.864H362.807C358.735 397.864 354.839 396.202 352.02 393.264Z" fill="white"/>
<path d="M258.62 393.485L166.294 301.159L161.453 296.318C158.854 293.719 157.304 290.255 157.098 286.585L154.943 248.229C154.173 234.524 170.733 227.113 180.44 236.82L315.963 372.343C325.38 381.761 318.711 397.864 305.392 397.864H269.191C265.226 397.864 261.423 396.288 258.62 393.485Z" fill="white"/>
<path d="M172.367 398.331H239.173C242.793 398.331 244.606 393.954 242.046 391.394L182.938 332.285C173.52 322.868 157.418 329.538 157.418 342.856V383.381C157.418 391.638 164.111 398.331 172.367 398.331Z" fill="white"/>
<path d="M231.374 189.155C231.374 185.18 234.596 181.958 238.571 181.958H336.994C349.004 181.958 358.74 191.694 358.74 203.704V204.373C358.74 216.013 349.304 225.449 337.663 225.449H267.668C247.623 225.449 231.374 209.2 231.374 189.155Z" fill="#EA8010"/>
</svg>
